<?xml version="1.0" ?><!DOCTYPE svg  PUBLIC '-//W3C//DTD SVG 1.1//EN'  'http://www.w3.org/Graphics/SVG/1.1/DTD/svg11.dtd'><svg enable-background="new 0 0 128 128" id="Слой_1" version="1.1" viewBox="0 0 128 128" xml:space="preserve" xmlns="http://www.w3.org/2000/svg" xmlns:xlink="http://www.w3.org/1999/xlink"><g><g><g><g><circle cx="64" cy="64" fill="#F4F1A3" r="62"/></g></g><g><g><path d="M41.1,97.3l-6.6-5.1l-5.5,7c-0.2,0.3,0,0.7,0.4,0.7l9.4,0c0.1,0,0.3-0.1,0.4-0.2L41.1,97.3z" fill="#43B19A"/></g></g><g><path d="M37,71.8l-0.6,0.7l-0.3,0.4c3.1,6.2,2.3,13.6-1.9,19.1l7.1,5.6l0,0c4.3-5.5,11.4-8,18.2-6.5l0.2-0.3     l0.6-0.7L49.8,79.9L37,71.8z" fill="#4A4946"/></g><g opacity="0.1"><g><path d="M38.4,74.6l-0.5-0.9l0.6-0.7L37,71.8l-0.6,0.7l-0.3,0.4c3.1,6.2,2.3,13.6-1.9,19.1l0.7,0.6      C39.3,87,41.5,80.8,38.4,74.6z" fill="#FDFDFD"/></g></g><g opacity="0.2"><g><path d="M58.8,88.7l-0.6,0.7l-0.8-0.2c-6.8-1.6-12.5,2.1-16.7,7.6l-1.5-1.1l2.2,1.7l0,0c4.3-5.5,11.4-8,18.2-6.5      l0.2-0.3l0.6-0.7L58.8,88.7z" fill="#07090A"/></g></g><g opacity="0.2"><g><polygon fill="#07090A" points="59.8,90.7 36.5,72.5 37,71.8 49.7,79.9 60.4,90     "/></g></g></g><g opacity="0.1"><g><path d="M29.9,98.1l-0.8,1.1c-0.2,0.3,0,0.7,0.4,0.7l9.4,0c0.1,0,0.3-0.1,0.4-0.2l1.3-1.6H29.9z" fill="#07090A"/></g></g><g><path d="M61,90.4L36.3,71.2l42.7-49.1c1.6-1.9,4.4-2.1,6.4-0.6l11.9,9.3c1.9,1.5,2.4,4.3,1,6.3L61,90.4z" fill="#43B19A"/></g><g opacity="0.15"><g><path d="M87.5,23.2l-2.2-1.7c-1.9-1.5-4.7-1.2-6.4,0.6L36.3,71.2l2.2,1.7l42.7-49.1     C82.8,21.9,85.5,21.7,87.5,23.2z" fill="#FDFDFD"/></g></g><g opacity="0.1"><g><path d="M98.2,37c1.4-2,1-4.8-1-6.3L95,29c1.9,1.5,2.4,4.3,1,6.3L58.8,88.7l2.2,1.7L98.2,37z" fill="#07090A"/></g></g></g></svg>