<?xml version="1.0" ?><!DOCTYPE svg  PUBLIC '-//W3C//DTD SVG 1.1//EN'  'http://www.w3.org/Graphics/SVG/1.1/DTD/svg11.dtd'><svg enable-background="new 0 0 128 128" id="Слой_1" version="1.1" viewBox="0 0 128 128" xml:space="preserve" xmlns="http://www.w3.org/2000/svg" xmlns:xlink="http://www.w3.org/1999/xlink"><g><g><g><g><circle cx="64" cy="64" fill="#E9705B" r="62"/></g></g><g><g><path d="M26.6,87.5c-0.2-0.4-0.4-0.9-0.4-1.4V39.7c0-1.4,1.1-2.5,2.5-2.5h70.5c1.4,0,2.5,1.1,2.5,2.5v46.5      c0,0.5-0.2,1-0.4,1.4" fill="#343738"/></g></g><g><g><path d="M110.4,87.5H17.6c-0.1,0-0.1,0-0.1,0.1v0.1v1.6c0,0,1.2,1.5,4.8,1.5c2.6,0,80.5,0,83.2,0      c3.6,0,5-1.5,5-1.5c0-0.1,0-0.2,0-0.4c0-0.9,0-0.9,0-0.9v-0.5C110.5,87.6,110.5,87.5,110.4,87.5z" fill="#D0D3D6"/></g></g><g opacity="0.2"><g><path d="M57,87.5L57,87.5c0,0.8,1.1,1.1,1.8,1.1H64h4.9c0.5,0,1.4-0.4,1.5-1.1" fill="#050708"/></g></g><polygon fill="#FFFFFF" points="28.5,39.8 28.5,74.3 28.5,84.8 99.5,84.8 99.5,56.2 99.5,39.8   "/><g><path d="M94.9,77.8H33.1c-1.4,0-2.6-1.1-2.6-2.6V44.2l67-0.7v31.8C97.5,76.7,96.4,77.8,94.9,77.8z" fill="#F1EEED"/><rect fill="#BEBDBB" height="1.3" width="10.7" x="37.3" y="55"/><rect fill="#BEBDBB" height="1.3" width="10.7" x="49.7" y="55"/><rect fill="#BEBDBB" height="1.3" width="10.7" x="62" y="55"/><polyline fill="#4A4946" points="95.8,60 95.8,61 78.8,61 78.8,60    "/><polyline fill="#4A4946" points="95.8,62 95.8,63 78.8,63 78.8,62    "/><polyline fill="#4A4946" points="95.8,64 95.8,65 78.8,65 78.8,64    "/><polyline fill="#4A4946" points="95.8,66 95.8,67 78.8,67 78.8,66    "/><polyline fill="#4A4946" points="95.8,68 95.8,69 78.8,69 78.8,68    "/><polyline fill="#4A4946" points="95.8,70 95.8,71 78.8,71 78.8,70    "/><polyline fill="#4A4946" points="95.8,72 95.8,73 78.8,73 78.8,72    "/><polyline fill="#4A4946" points="95.8,74 95.8,75 78.8,75 78.8,74    "/><path d="M94.9,40.9H33.1c-1.4,0-2.6,1.1-2.6,2.6v3.4h67v-3.4C97.5,42,96.4,40.9,94.9,40.9z" fill="#D0D3D6"/><circle cx="33.8" cy="44" fill="#C55D44" r="1.3"/><circle cx="37.4" cy="44" fill="#F6CA40" r="1.3"/><circle cx="41" cy="44" fill="#45B19B" r="1.3"/><path d="M35.9,69.6L34,67.7c-0.2-0.2-0.2-0.5,0-0.8l1.9-1.9l0.8,0.8l-1.5,1.5l1.5,1.5L35.9,69.6z" fill="#4A4946"/><path d="M74.2,69.6l1.9-1.9c0.2-0.2,0.2-0.5,0-0.8l-1.9-1.9l-0.8,0.8l1.5,1.5l-1.5,1.5L74.2,69.6z" fill="#4A4946"/><rect fill="#67C9CE" height="5" width="67" x="30.5" y="46.8"/></g></g><path d="M89.5,79.8h-51c-2.8,0-5,2.2-5,5v0h61v0C94.5,82.1,92.3,79.8,89.5,79.8z" fill="#0A0C0D" opacity="0.2"/><rect fill="#F5C93F" height="15.9" width="35.3" x="37.3" y="60.1"/></g></svg>