<?xml version="1.0" encoding="iso-8859-1"?>
<!-- Generator: Adobe Illustrator 17.1.0, SVG Export Plug-In . SVG Version: 6.00 Build 0)  -->
<!DOCTYPE svg PUBLIC "-//W3C//DTD SVG 1.1//EN" "http://www.w3.org/Graphics/SVG/1.1/DTD/svg11.dtd">
<svg xmlns="http://www.w3.org/2000/svg" xmlns:xlink="http://www.w3.org/1999/xlink" version="1.1" id="Capa_1" x="0px" y="0px" viewBox="0 0 465 465" style="enable-background:new 0 0 465 465;" xml:space="preserve" width="512px" height="512px">
<g>
	<path d="M232.5,235.396c-14.021,0-25.427,11.406-25.427,25.427s11.406,25.427,25.427,25.427s25.427-11.406,25.427-25.427   S246.521,235.396,232.5,235.396z M232.5,271.249c-5.75,0-10.427-4.678-10.427-10.427s4.677-10.427,10.427-10.427   s10.427,4.678,10.427,10.427S238.25,271.249,232.5,271.249z" fill="#2f3438"/>
	<path d="M240.5,212.822c0-4.411-3.589-8-8-8s-8,3.589-8,8s3.589,8,8,8S240.5,217.233,240.5,212.822z" fill="#2f3438"/>
	<path d="M130.341,335.733h204.317c4.142,0,7.5-3.357,7.5-7.5V7.5c0-4.143-3.358-7.5-7.5-7.5H130.341c-4.142,0-7.5,3.357-7.5,7.5   v320.733C122.841,332.376,126.199,335.733,130.341,335.733z M137.841,15h189.317v305.733H137.841V15z" fill="#2f3438"/>
	<path d="M291.794,49.484H173.206c-4.142,0-7.5,3.357-7.5,7.5s3.358,7.5,7.5,7.5h118.589c4.142,0,7.5-3.357,7.5-7.5   S295.937,49.484,291.794,49.484z" fill="#2f3438"/>
	<path d="M291.794,148.452H173.206c-4.142,0-7.5,3.357-7.5,7.5s3.358,7.5,7.5,7.5h118.589c4.142,0,7.5-3.357,7.5-7.5   S295.937,148.452,291.794,148.452z" fill="#2f3438"/>
	<path d="M291.794,98.968H173.206c-4.142,0-7.5,3.357-7.5,7.5s3.358,7.5,7.5,7.5h118.589c4.142,0,7.5-3.357,7.5-7.5   S295.937,98.968,291.794,98.968z" fill="#2f3438"/>
	<path d="M457.5,431.5h-149v-6c0-6.893-5.607-12.5-12.5-12.5h-56v-64.767c0-4.143-3.358-7.5-7.5-7.5s-7.5,3.357-7.5,7.5V413h-56   c-6.893,0-12.5,5.607-12.5,12.5v6H7.5c-4.142,0-7.5,3.357-7.5,7.5s3.358,7.5,7.5,7.5h149v6c0,6.893,5.607,12.5,12.5,12.5h127   c6.893,0,12.5-5.607,12.5-12.5v-6h149c4.142,0,7.5-3.357,7.5-7.5S461.642,431.5,457.5,431.5z M293.5,450h-122v-22h122V450z" fill="#2f3438"/>
</g>
<g>
</g>
<g>
</g>
<g>
</g>
<g>
</g>
<g>
</g>
<g>
</g>
<g>
</g>
<g>
</g>
<g>
</g>
<g>
</g>
<g>
</g>
<g>
</g>
<g>
</g>
<g>
</g>
<g>
</g>
</svg>
